<svg xmlns="http://www.w3.org/2000/svg" fill="none" width="91.563" height="29.094" viewBox="0 0 91.563 29.094">
  <svg x="0" y="0" width="91.563" height="29.094" viewBox="0 0 91.567 29.107" overflow="visible">

<g>
<path d="M17.3102 12.9583C18.1967 11.9687 18.7099 10.6414 18.6633 9.18599C18.5233 6.32183 16.0621 4.0864 13.1693 4.0864H0V22.7034H14.4524C17.4151 22.7034 19.8297 20.305 19.8297 17.3593C19.8297 14.7863 18.0334 13.4473 17.3102 12.9583ZM11.6645 7.67241C12.901 7.67241 13.9858 8.25456 13.9858 9.55856C13.9741 10.8509 12.8776 11.3865 11.6645 11.3865H4.66581V7.67241H11.6645ZM4.66581 19.1291L4.64248 14.9725H12.831C14.0674 14.9725 15.1639 15.741 15.1639 17.045C15.1406 18.3373 14.0324 19.1174 12.831 19.1174H4.66581V19.1291Z" fill="var(--fill-0, white)"/>
<path d="M26.8285 6.40363H22.1627V22.7037H26.8285V6.40363Z" fill="var(--fill-0, white)"/>
<path d="M24.4952 5.23931C25.9416 5.23931 27.1197 4.06337 27.1197 2.61965C27.1197 1.17593 25.9416 0 24.4952 0C23.0488 0 21.8707 1.17593 21.8707 2.61965C21.8707 4.06337 23.0488 5.23931 24.4952 5.23931Z" fill="var(--fill-0, white)"/>
<path d="M40.8258 6.50842C44.3251 7.07892 47.2412 9.79172 47.2412 14.053V22.7037H42.5754V14.5304C42.5754 11.6197 40.8258 10.0828 38.4928 10.0828C36.3232 10.0828 34.4103 11.2587 34.4103 14.5304V22.7037H29.7444V6.40363H34.4103V7.56792C36.1833 6.68306 37.9679 6.40363 39.4727 6.40363C39.9509 6.40363 40.4058 6.4502 40.8258 6.50842Z" fill="var(--fill-0, white)"/>
<path d="M62.9884 6.40363V7.60285C62.3119 7.27685 60.2939 6.40363 57.5994 6.40363C53.1552 6.40363 48.991 9.163 48.991 13.8202C48.991 18.4773 53.1202 22.1215 57.5878 22.1215C59.8973 22.1215 61.6937 21.6209 62.9768 20.7128C62.9768 22.0983 61.9969 25.0323 57.7277 25.0323C55.0216 25.0323 53.1786 23.6584 52.4787 22.7037L48.9793 25.0439C50.5307 27.4074 53.9368 29.1073 58.066 29.1073C60.9355 29.1073 63.3267 28.269 65.0064 26.7671C66.6861 25.2651 67.6426 23.0996 67.6426 20.5032V6.40363H62.9768H62.9884ZM58.3226 18.0465C55.7448 18.0465 53.6568 16.2652 53.6568 14.0647C53.6568 11.8642 55.7448 10.0828 58.3226 10.0828C60.9005 10.0828 62.9884 11.8642 62.9884 14.0647C62.9884 16.2652 60.9005 18.0465 58.3226 18.0465Z" fill="var(--fill-0, white)"/>
<path d="M83.7747 13.9716C86.5858 10.5602 89.7353 10.0828 91.5666 10.0828V5.23939C88.8721 5.23939 84.6029 5.99618 80.8469 9.97805C77.2192 6.00782 72.5884 5.23939 69.9872 5.23939V10.0828C71.9119 10.0828 75.3412 10.6883 77.8724 13.9716C75.3529 17.2549 71.9119 17.8603 69.9872 17.8603V22.7037C72.5884 22.7037 77.2076 21.9237 80.8469 17.9651C84.6145 21.947 88.8838 22.7037 91.5666 22.7037V17.8603C89.7353 17.8603 86.5858 17.3829 83.7747 13.9716Z" fill="var(--fill-0, white)"/>
</g>

  </svg>
</svg>
