<svg xmlns="http://www.w3.org/2000/svg" fill="none" width="89.969" height="26.875" viewBox="0 0 89.969 26.875">
  <svg x="0" y="0" width="89.969" height="26.875" viewBox="0 0 89.972 26.888" overflow="visible">

<g>
<path d="M35.2645 13.0469C35.9415 12.666 36.483 12.1917 36.8779 11.6326C37.3265 11.0005 37.5639 10.245 37.5566 9.47225C37.5566 7.98183 36.994 6.8177 35.8856 6.01363C34.7902 5.21735 33.2834 4.81488 31.4053 4.81488H24.6147V22.0829H31.677C33.6546 22.0829 35.2383 21.6276 36.3835 20.7284C37.5374 19.8213 38.1235 18.5516 38.1235 16.953C38.1235 15.9792 37.8475 15.1423 37.305 14.4646C36.8185 13.8587 36.1328 13.3827 35.2645 13.0469ZM28.2895 7.9273H31.1101C31.995 7.9273 32.6623 8.09694 33.0964 8.4319C33.5245 8.76079 33.7341 9.19529 33.7341 9.75614C33.7341 10.3187 33.5245 10.774 33.0964 11.1055C32.6623 11.4396 31.995 11.6092 31.1101 11.6092H28.2895V7.9273ZM33.5996 18.3854C33.1104 18.774 32.3636 18.9705 31.3809 18.9705H28.2895V14.745H31.3817C32.3636 14.745 33.1113 14.9354 33.6022 15.3076C34.0887 15.6798 34.3246 16.1705 34.3246 16.8101C34.3246 17.4835 34.0879 17.9985 33.5996 18.3854ZM43.0894 9.17019H39.3892V22.082H43.0885L43.0894 9.17019ZM79.6291 11.1133C79.0368 10.4175 78.2904 9.86654 77.4479 9.50341C76.5867 9.12518 75.6179 8.93303 74.5706 8.93303C73.2866 8.93303 72.1283 9.22212 71.1264 9.79163C70.1356 10.3504 69.3172 11.1661 68.7592 12.151C68.1905 13.1464 67.9031 14.2993 67.9031 15.5794C67.9031 16.8603 68.1826 18.0894 68.7329 19.0994C69.2707 20.0974 70.0903 20.9185 71.0914 21.4623C72.1021 22.0154 73.2892 22.2958 74.6204 22.2958C76.2539 22.2958 77.6401 21.889 78.7434 21.085C79.8047 20.312 80.534 19.2224 80.9324 17.8566H77.2077C77.0121 18.3213 76.736 18.7169 76.3403 18.9956C75.873 19.3245 75.2694 19.4907 74.5462 19.4907C73.919 19.4907 73.3809 19.3401 72.9476 19.0423C72.5135 18.7437 72.1816 18.304 71.9632 17.7319C71.8237 17.356 71.7301 16.9649 71.6845 16.5669H80.997L81.0154 16.4527C81.1813 15.4115 81.1394 14.4248 80.8896 13.5203C80.6507 12.6366 80.2206 11.8149 79.6291 11.1124V11.1133ZM71.7439 14.1772C71.8005 13.9097 71.8778 13.647 71.9754 13.3913C72.2025 12.8114 72.5301 12.3657 72.9502 12.068C73.3687 11.7702 73.8893 11.6205 74.4972 11.6205C75.2598 11.6205 75.8861 11.8654 76.3578 12.3475C76.8059 12.8062 77.0592 13.4329 77.1134 14.1764L71.7439 14.1772ZM43.1662 4.81488H39.3123V7.9273H43.1662V4.81488ZM63.4246 10.6355C63.0076 10.131 62.4863 9.72079 61.896 9.43244C61.2059 9.10094 60.3979 8.93303 59.4947 8.93303C58.3897 8.93303 57.3983 9.20394 56.551 9.73537C55.7037 10.2677 55.0311 11.0189 54.555 11.9676C54.079 12.9144 53.8379 14.0258 53.8379 15.2721C53.8379 16.5185 54.0912 17.5649 54.5926 18.5178C55.0949 19.4742 55.7911 20.2359 56.6619 20.7829C57.5337 21.3308 58.5286 21.6095 59.6188 21.6095C60.4416 21.6095 61.1937 21.4329 61.8523 21.0841C62.36 20.8191 62.804 20.4485 63.1539 19.9979V21.4035C63.1539 22.275 62.9232 22.9441 62.469 23.3898C62.0131 23.8356 61.3195 24.0606 60.4075 24.0606C59.6214 24.0606 59.0038 23.884 58.5714 23.5352C58.2177 23.2496 57.9084 22.8757 57.8368 22.0829H54.2694C54.3026 23.1925 54.631 23.9394 55.0957 24.5946C55.6155 25.3277 56.3475 25.9016 57.2734 26.298C58.1888 26.6892 59.2528 26.8883 60.432 26.8883C62.4131 26.8883 63.9898 26.3949 65.1184 25.4229C66.2539 24.4458 66.8287 23.0774 66.8287 21.3567V9.17019H63.4255L63.4246 10.6355ZM62.7739 16.9876C62.5595 17.4451 62.2176 17.8325 61.7886 18.1041C61.3693 18.3638 60.8626 18.497 60.2844 18.497C59.4458 18.497 58.7951 18.214 58.2928 17.6333C57.7914 17.0542 57.5372 16.2597 57.5372 15.2712C57.5372 14.2828 57.7905 13.4883 58.2919 12.9092C58.7889 12.3363 59.4589 12.0454 60.2835 12.0454C61.109 12.0454 61.8375 12.3397 62.3502 12.9222C62.8673 13.5099 63.1294 14.3079 63.1294 15.2937C63.1294 15.9334 63.0097 16.502 62.7739 16.9867V16.9876ZM89.9723 12.2592V9.17105H87.302V4.81488H83.6271V9.17105H81.3464V12.2592H83.6271V17.3139C83.6271 20.1242 84.1862 22.1894 87.668 22.1253L89.8544 22.082V19.1886H88.7695C87.2216 19.1886 87.3081 18.2945 87.3081 16.6336L87.302 12.2601L89.9723 12.2592ZM52.9391 12.2592V9.17105H50.2687V4.81488H46.5939V9.17105H44.3123V12.2592H46.5921V17.3139C46.5921 20.1242 47.1512 22.1894 50.6339 22.1253L52.8194 22.082V19.1886H51.7371C50.1893 19.1886 50.2749 18.2945 50.2749 16.6336L50.2687 12.2601L52.9391 12.2592ZM9.22347 7.9273H14.7729L20.4498 13.516C20.8193 13.8795 20.821 14.4715 20.4533 14.8368L13.1726 22.0872H7.45723L9.18591 20.422L15.5311 14.1746L9.26627 7.92643" fill="var(--fill-0, black)"/>
<path d="M11.5037 14.1599H5.956L0.278198 8.57126C0.190335 8.48482 0.120539 8.38206 0.0728023 8.26887C0.0250661 8.15567 0.000327775 8.03426 3.23521e-06 7.91158C-0.000321305 7.7889 0.0237743 7.66736 0.070911 7.55392C0.118048 7.44048 0.1873 7.33736 0.274704 7.25047L7.55539 0H13.2716L11.5438 1.66526L5.1978 7.91259L11.4635 14.1599" fill="var(--fill-0, black)"/>
</g>

  </svg>
</svg>
