<svg xmlns="http://www.w3.org/2000/svg" fill="none" width="100.391" height="24.797" viewBox="0 0 100.391 24.797">
  <svg x="0" y="0" width="100.391" height="24.797" viewBox="0 0 100.391 24.801" overflow="visible">

<g>
<path d="M33.9962 5.31242C35.4206 5.31242 36.52 5.62892 37.3352 6.30422C37.719 6.61864 38.0232 7.01487 38.2244 7.46226C38.4256 7.9096 38.5184 8.39617 38.4956 8.88405C38.5176 9.60469 38.3031 10.3134 37.8835 10.9073C37.4501 11.4507 36.8618 11.8576 36.1922 12.0771C37.0415 12.1642 37.8215 12.5731 38.3642 13.2152C38.9068 13.8575 39.1686 14.6817 39.0931 15.5102C39.0931 16.94 38.5855 17.9714 37.5876 18.6467C36.7308 19.2118 35.5289 19.4944 33.9817 19.4944H27.3385V5.31237L33.9962 5.31242ZM29.5721 11.3255H33.4015C34.4198 11.3255 35.1421 11.1446 35.6004 10.8084C36.0587 10.4721 36.2735 9.89562 36.2735 9.14122C36.2735 8.38673 36.0501 7.91202 35.6004 7.59271C35.1508 7.27339 34.4197 7.09824 33.4421 7.09824H29.5721V11.3255ZM29.5721 17.6945H33.6858C34.4455 17.7264 35.2016 17.5759 35.8876 17.2566C36.2069 17.0776 36.4693 16.8161 36.6454 16.5009C36.8215 16.1857 36.9046 15.8292 36.8855 15.4708C36.8855 14.6372 36.6186 14.0241 36.111 13.6454C35.6033 13.2668 34.8084 13.0802 33.7467 13.0802H29.5721V17.6945Z" fill="var(--fill-0, #F3F3F3)"/>
<path d="M43.6187 9.22027V19.4774H41.4663V9.22027H43.6187ZM43.6187 7.41464H41.4663V5.31237H43.6246L43.6187 7.41464Z" fill="var(--fill-0, #F3F3F3)"/>
<path d="M85.6656 19.4772V9.21994H87.8211V11.4551C88.2129 10.3022 89.3938 9.21999 91.3028 9.21999H92.0246V11.3195H90.9573C88.9641 11.3195 87.8064 12.0852 87.8064 13.2381V19.4772L85.6656 19.4772Z" fill="var(--fill-0, #F3F3F3)"/>
<path d="M82.3204 10.0738C81.5877 9.32029 80.4462 8.94347 78.8974 8.94347C77.5921 8.94347 76.533 9.16111 75.7585 9.63582C75.3096 9.90137 74.9256 10.2592 74.6335 10.6843C74.3413 11.1094 74.1481 11.5916 74.0672 12.0969L76.2082 12.2778C76.2548 12.013 76.3611 11.7615 76.5197 11.5416C76.6782 11.3217 76.8849 11.1388 77.1248 11.0062C77.6261 10.7477 78.1887 10.6248 78.7552 10.6502C80.345 10.6502 81.1387 11.3641 81.1371 12.792V12.9305H77.8618C76.3474 12.9305 75.1609 13.4363 74.3225 14.4677C73.8823 14.9933 73.6434 15.6515 73.6465 16.3298C73.6465 18.0704 75.2015 19.4804 77.1278 19.4804C77.3162 19.4804 77.8587 19.4606 78.1578 19.4211C78.2652 19.4066 78.3719 19.3858 78.477 19.3589C78.9183 19.2868 79.3495 19.1605 79.7592 18.9831C80.2816 18.7203 80.7453 18.3581 81.1225 17.9178V19.4776H83.2833V12.9305C83.2779 11.6815 82.9502 10.7181 82.3204 10.0738ZM81.1163 15.2391C81.0645 15.9511 80.7391 16.844 80.1386 17.3357C79.4894 17.8726 78.7119 17.8698 77.7953 17.8698C77.32 17.8907 76.8529 17.7509 76.4722 17.4742C76.3123 17.365 76.1825 17.2194 76.0939 17.0498C76.0054 16.8803 75.9609 16.6923 75.9645 16.5022C75.9645 15.3154 76.8348 14.657 78.552 14.5411H81.1163L81.1163 15.2391Z" fill="var(--fill-0, #F3F3F3)"/>
<path d="M68.6397 5.31237L63.093 17.1688L57.5492 5.31237H55.0544V19.4802H57.2156V9.22027L62.0139 19.4802H64.1722L68.982 9.19765V19.4802H71.1433V5.31237H68.6397Z" fill="var(--fill-0, #F3F3F3)"/>
<path d="M97.9944 17.6915V11.3196H100.391V9.22014H97.9944V6.36337H95.839V9.22014H93.8899V11.3196H95.839V17.2535C95.839 18.6127 96.6281 19.4717 98.1135 19.4717H100.391V17.6915L97.9944 17.6915Z" fill="var(--fill-0, #F3F3F3)"/>
<path d="M50.1518 17.6915V11.3196H52.548V9.22014H50.1518V6.36337H47.9993V9.22014H46.0469V11.3196H47.9993V17.2535C47.9993 18.6127 48.7854 19.4717 50.2736 19.4717H52.548V17.6915L50.1518 17.6915Z" fill="var(--fill-0, #F3F3F3)"/>
<path d="M13.71 17.8129H5.87446V18.4798H13.71V17.8129Z" fill="var(--fill-0, #F3F3F3)"/>
<path d="M7.83552 21.9608H1.95815V22.6277H7.83552V21.9608Z" fill="var(--fill-0, #F3F3F3)"/>
<path d="M3.91051 17.8159H0V18.4827H3.91051V17.8159Z" fill="var(--fill-0, #F3F3F3)"/>
<path d="M13.71 15.886H7.83261V16.5528H13.71V15.886Z" fill="var(--fill-0, #F3F3F3)"/>
<path d="M5.86826 15.886H1.96065V16.5528H5.86826V15.886Z" fill="var(--fill-0, #F3F3F3)"/>
<path d="M13.7104 7.2647H3.91381V7.93152H13.7104V7.2647Z" fill="var(--fill-0, #F3F3F3)"/>
<path d="M5.86867 5.04629H1.95815V5.71316H5.86867V5.04629Z" fill="var(--fill-0, #F3F3F3)"/>
<path d="M18.9057 11.4581V11.4412C19.5881 10.2804 19.9456 8.96551 19.9429 7.62796C19.9401 6.2904 19.577 4.97696 18.8899 3.81887C18.2028 2.66083 17.2157 1.69863 16.0272 1.02847C14.8388 0.358307 13.4906 0.00372984 12.1175 0H3.91346V0.955081H12.1407C13.1945 0.95915 14.2332 1.19965 15.1763 1.65784C16.1193 2.11603 16.9412 2.77975 17.5783 3.5974C18.2154 4.41506 18.6508 5.36467 18.8502 6.3726C19.0497 7.38053 19.0082 8.4197 18.7288 9.40946C18.9334 8.55329 18.9371 7.66322 18.7397 6.80545C18.5422 5.94774 18.1485 5.14441 17.5881 4.45541C17.0277 3.76641 16.3149 3.20945 15.5027 2.82596C14.6907 2.44251 13.8002 2.24246 12.8978 2.24071H5.87446V3.19579H12.9064C13.6944 3.19604 14.4713 3.37734 15.1738 3.72499C15.8763 4.07264 16.4848 4.57675 16.9498 5.19644C17.4147 5.81613 17.723 6.53395 17.8496 7.29149C17.9763 8.04904 17.9177 8.82504 17.6785 9.55643C17.8323 8.99215 17.8513 8.4011 17.7342 7.82854C17.617 7.25594 17.3668 6.71715 17.0027 6.25344C16.6386 5.78973 16.1703 5.4133 15.6338 5.15318C15.0972 4.89306 14.5066 4.75608 13.9073 4.75273H7.81523V5.71629H13.8783C14.3932 5.71721 14.8989 5.84955 15.345 6.10003C15.7911 6.35051 16.162 6.71051 16.4209 7.14414C16.6797 7.57777 16.8174 8.06987 16.8201 8.57136C16.823 9.07286 16.6908 9.5664 16.4369 10.0027C15.5607 9.68537 14.6333 9.52266 13.6984 9.52237H5.86572V10.4775H13.6984C15.2961 10.4777 16.8436 11.0208 18.0744 12.0133C19.3051 13.0057 20.1418 14.3853 20.4402 15.9141C20.1424 14.6513 19.4142 13.5242 18.3742 12.7165C17.3341 11.9087 16.0438 11.4681 14.7137 11.4665H3.91046V12.413H14.7282C15.9029 12.4169 17.0371 12.832 17.9239 13.5826C18.8106 14.3332 19.3907 15.3693 19.5584 16.5018C19.393 15.6244 18.9174 14.8313 18.2142 14.2598C17.511 13.6885 16.6246 13.375 15.7088 13.3738H3.91631V14.3289H15.7059C16.4853 14.3289 17.2328 14.6305 17.7839 15.1673C18.3349 15.704 18.6446 16.4321 18.6446 17.1913C18.6446 17.9505 18.335 18.6785 17.7839 19.2154C17.2327 19.7522 16.4852 20.0537 15.7059 20.0537H1.95815V21.0088H15.7088C16.6246 21.0076 17.5109 20.6941 18.2142 20.1227C18.9174 19.5513 19.393 18.7581 19.5584 17.8807C19.3884 19.0142 18.8053 20.0502 17.9159 20.7993C17.0263 21.5485 15.8897 21.9608 14.7137 21.961H9.78213V22.9161H14.7137C15.9912 22.9144 17.2333 22.508 18.2528 21.7581C19.2722 21.0083 20.0135 19.9558 20.3649 18.7595C19.9978 20.2087 19.1435 21.4967 17.9381 22.4184C16.7327 23.3401 15.2454 23.8425 13.7129 23.8457H3.925V24.8008H13.6984C15.2922 24.8083 16.8505 24.342 18.1651 23.4642C19.4797 22.5863 20.488 21.3388 21.0555 19.888C21.623 18.4373 21.7226 16.8525 21.3411 15.3452C20.9596 13.8379 20.115 12.4798 18.9202 11.4523L18.9057 11.4581Z" fill="var(--fill-0, #F3F3F3)"/>
</g>

  </svg>
</svg>
