<svg xmlns="http://www.w3.org/2000/svg" fill="none" width="176.406" height="58.813" viewBox="0 0 176.406 58.813">
  <svg x="125.703" y="0" width="9.156" height="45.328" viewBox="0 0 4.463 22.203" overflow="visible">

<path d="M0 22.2032V0H4.46287V22.2032H0Z" fill="var(--fill-0, #F7A600)"/>

  </svg>
  <svg x="0" y="13.484" width="33.844" height="45.328" viewBox="0 0 16.566 22.203" overflow="visible">

<path d="M9.56756 22.2032H0V0H9.18282C13.6457 0 16.2462 2.43232 16.2462 6.23702C16.2462 8.69984 14.5761 10.2914 13.4201 10.8213C14.7999 11.4447 16.5661 12.8477 16.5661 15.8116C16.5661 19.9577 13.6457 22.2032 9.56756 22.2032ZM8.82958 3.86756H4.46287V8.98178H8.82958C10.7235 8.98178 11.7833 7.95252 11.7833 6.42383C11.7833 4.89682 10.7235 3.86756 8.82958 3.86756ZM9.11812 12.8799H4.46287V18.3373H9.11812C11.1414 18.3373 12.1033 17.0906 12.1033 15.5925C12.1033 14.0961 11.1397 12.8799 9.11812 12.8799Z" fill="var(--fill-0, white)"/>

  </svg>
  <svg x="38.531" y="13.484" width="37.141" height="45.328" viewBox="0 0 18.172 22.203" overflow="visible">

<path d="M11.3023 13.0973V22.2032H6.87094V13.0973L0 0H4.8476L9.11811 8.9495L13.324 0H18.1716L11.3023 13.0973Z" fill="var(--fill-0, white)"/>

  </svg>
  <svg x="81.922" y="13.484" width="33.844" height="45.328" viewBox="0 0 16.566 22.203" overflow="visible">

<path d="M9.56759 22.2032H0V0H9.18286C13.6457 0 16.2462 2.43232 16.2462 6.23702C16.2462 8.69984 14.5761 10.2914 13.4201 10.8213C14.7999 11.4447 16.5662 12.8477 16.5662 15.8116C16.5662 19.9577 13.6457 22.2032 9.56759 22.2032ZM8.82962 3.86756H4.46288V8.98178H8.82962C10.7236 8.98178 11.7833 7.95252 11.7833 6.42383C11.7833 4.89682 10.7236 3.86756 8.82962 3.86756ZM9.11812 12.8799H4.46288V18.3373H9.11812C11.1414 18.3373 12.1033 17.0906 12.1033 15.5925C12.1033 14.0961 11.1414 12.8799 9.11812 12.8799Z" fill="var(--fill-0, white)"/>

  </svg>
  <svg x="142.875" y="13.484" width="33.531" height="45.328" viewBox="0 0 16.407 22.205" overflow="visible">

<path d="M10.435 3.86756V22.2048H5.97209V3.86756H0V0H16.407V3.86756H10.435Z" fill="var(--fill-0, white)"/>

  </svg>
</svg>
