<svg xmlns="http://www.w3.org/2000/svg" fill="none" width="241.141" height="58.813" viewBox="0 0 241.141 58.813">
  <svg x="0" y="0" width="32.75" height="39.609" viewBox="0 0 16.018 19.383" overflow="visible">

<path d="M9.18265 0H0L11.4471 19.3829L16.0176 11.6298L9.18265 0Z" fill="var(--fill-0, white)"/>

  </svg>
  <svg x="48.172" y="0" width="21.344" height="20.281" viewBox="0 0 10.45 9.925" overflow="visible">

<path d="M1.26725 0V0.0405925L0 2.17169L4.59134 9.92486L10.4499 0H1.26725Z" fill="var(--fill-0, #FFD30F)"/>

  </svg>
  <svg x="25.438" y="7.922" width="30.094" height="50.891" viewBox="0 0 14.73 24.924" overflow="visible">

<path d="M0.976432 0L5.58858 7.75317L4.5706 9.41745L0 17.1707L3.57336 23.2595L4.5706 24.9237L9.14106 17.1707L14.7296 7.75317L10.159 0H0.976432Z" fill="var(--fill-0, #FFD30F)"/>

  </svg>
  <svg x="195.406" y="10.078" width="30.672" height="38.656" viewBox="0 0 15 18.936" overflow="visible">

<path d="M14.9997 0H0V18.9364H4.54972V3.89687H14.9997V0Z" fill="var(--fill-0, white)"/>

  </svg>
  <svg x="209.125" y="25.875" width="12.766" height="7.344" viewBox="0 0 6.253 3.592" overflow="visible">

<path d="M6.25331 0H0V3.59242H6.25331V0Z" fill="var(--fill-0, white)"/>

  </svg>
  <svg x="232.453" y="22.344" width="8.688" height="26.391" viewBox="0 0 4.238 12.929" overflow="visible">

<path d="M4.23824 0H0V12.9287H4.23824V0Z" fill="var(--fill-0, white)"/>

  </svg>
  <svg x="232.453" y="10.078" width="8.688" height="7.969" viewBox="0 0 4.238 3.897" overflow="visible">

<path d="M4.23824 0H0V3.89687H4.23824V0Z" fill="var(--fill-0, #FFD30F)"/>

  </svg>
  <svg x="82.438" y="10.078" width="30.625" height="38.703" viewBox="0 0 15 18.957" overflow="visible">

<path d="M12.7977 9.1942C13.8364 8.58531 14.2727 6.61657 14.2727 5.82502V5.78443C14.2727 2.57763 11.6134 0 8.35176 0H0V3.97806H7.99852C9.01649 3.97806 9.84755 4.78991 9.84755 5.78443C9.84755 6.77894 9.01649 7.5908 7.99852 7.5908H0V18.9567H9.28665C12.4444 18.9567 14.9998 16.4603 14.9998 13.3753V13.355C14.9582 12.3401 14.9582 10.2496 12.7977 9.1942ZM10.6577 13.355C10.6577 14.4713 9.72284 15.3845 8.5803 15.3845H4.27971V11.3253H8.5803C9.72284 11.3253 10.6577 12.2387 10.6577 13.355Z" fill="var(--fill-0, white)"/>

  </svg>
  <svg x="127.047" y="10.078" width="21.766" height="38.656" viewBox="0 0 10.658 18.936" overflow="visible">

<path d="M5.96256 0H10.6577L4.3628 10.0669V18.9364H0V10.0669L5.96256 0Z" fill="var(--fill-0, white)"/>

  </svg>
  <svg x="155.188" y="10.078" width="33.844" height="38.703" viewBox="0 0 16.579 18.957" overflow="visible">

<path d="M0 0V18.9567H5.27696H6.77274C12.1951 18.9567 16.5787 14.6539 16.5787 9.37686V9.13331V9.09272C16.5787 4.07955 12.4237 0 7.27143 0H6.33655V3.53155H6.35729C9.59814 3.53155 12.2366 6.10918 12.2366 9.27538C12.2366 12.604 9.47357 15.3034 6.06639 15.3034H4.13426V0H0Z" fill="var(--fill-0, white)"/>

  </svg>
  <svg x="114.938" y="10.078" width="19.188" height="16.203" viewBox="0 0 9.39 7.936" overflow="visible">

<path d="M4.69517 7.93583L9.39033 0H0L4.69517 7.93583Z" fill="var(--fill-0, #FFD30F)"/>

  </svg>
</svg>
