<svg xmlns="http://www.w3.org/2000/svg" fill="none" width="286.688" height="72.094" viewBox="0 0 286.688 72.094">
  <svg x="0" y="0" width="286.688" height="72.094" viewBox="0 0 140.401 35.325" overflow="visible">

<g>
<path d="M21.8852 13.0524C19.2567 10.3728 15.079 10.3728 12.4781 13.0524C9.87736 15.7609 9.90505 20.1692 12.5059 22.8777C15.1066 25.5861 19.3398 25.6149 21.9405 22.9066C21.9848 22.8604 22.1676 22.6512 22.4888 22.2788L19.3525 19.0089C19.0301 19.3987 18.8599 19.603 18.8418 19.6218C17.9564 20.5438 16.5177 20.5438 15.6322 19.6218C14.7469 18.6998 14.7469 17.2015 15.6046 16.3083C16.4623 15.4151 17.901 15.4151 18.7863 16.3371C18.7863 16.3371 21.582 19.2462 27.1729 25.0644C24.8765 28.522 21.0275 30.7149 16.8773 30.7149C10.0157 30.7149 4.42685 24.8659 4.42685 17.6625C4.42685 10.4592 10.0157 4.61012 16.8773 4.61012C20.8892 4.61012 24.569 6.62706 26.8654 9.88299C26.4954 10.3304 25.5502 11.4529 24.0297 13.2503L27.1242 16.4636L32.2605 10.4304C29.6045 4.14913 23.6006 0 16.8773 0C7.5533 0 0 7.92366 0 17.6625C0 27.4014 7.5533 35.325 16.8773 35.325C21.1105 35.325 24.6243 33.942 28.0551 30.8878C31.1816 28.1217 32.6512 24.2865 32.6512 24.2865L21.8852 13.0524Z" fill="var(--fill-0, white)"/>
<path d="M104.054 19.9057V29.5547H100.207V19.695C99.8163 17.4292 97.8654 15.7069 95.5176 15.7069C93.1347 15.7069 91.1604 17.4823 90.8125 19.7994V29.5547H86.9645V12.0442L89.9159 13.9607C91.4178 12.6439 93.3765 11.8474 95.5176 11.8474C100.042 11.8474 103.747 15.4016 104.063 19.9057H104.054ZM63.665 9.82109C62.3867 10.5027 61.2453 11.4149 60.2928 12.5037C58.871 10.4898 56.5553 9.17907 53.9406 9.17907C49.6163 9.17907 46.1111 12.7629 46.1111 17.1838C46.1111 21.6047 49.6163 25.1885 53.9406 25.1885C55.3441 25.1885 56.6615 24.811 57.8003 24.1497C58.228 25.5697 58.904 26.8785 59.7763 28.0233C58.046 28.9994 56.0565 29.5547 53.9406 29.5547C47.2581 29.5547 41.8406 24.0161 41.8406 17.1838C41.8406 10.3515 47.2581 4.81289 53.9406 4.81289C57.9255 4.81289 61.4602 6.78233 63.665 9.82109ZM69.3898 29.5547C64.6682 29.5547 60.8401 25.6451 60.8401 20.8223C60.8401 15.9995 64.6682 12.0899 69.3898 12.0899C74.1118 12.0899 77.9399 15.9995 77.9399 20.8223C77.9399 25.6451 74.1118 29.5547 69.3898 29.5547ZM69.3898 25.6737C72.0132 25.6737 74.14 23.5016 74.14 20.8223C74.14 18.143 72.0132 15.971 69.3898 15.971C66.7668 15.971 64.64 18.143 64.64 20.8223C64.64 23.5016 66.7668 25.6737 69.3898 25.6737ZM80.3145 12.0899H84.1144V29.5547H80.3145V12.0899ZM121.639 8.99724H110.768V15.3458H121.323V19.2875H110.768V25.613H121.639V29.5547H106.676V5.05543H121.639V8.99724ZM129.629 20.7852L123.778 12.0899H128.617C128.759 12.3334 128.967 12.6675 129.242 13.0934C129.563 13.5926 129.896 14.11 130.24 14.6458C130.584 15.1815 130.917 15.6991 131.237 16.1983C131.556 16.6938 131.783 17.0616 131.918 17.2999L132.112 17.6443L135.589 12.0899H140.192L134.445 20.6392L140.401 29.5547H135.621L131.953 23.8463L131.755 24.1471C131.593 24.3925 131.352 24.7714 131.029 25.2842C130.708 25.7949 130.365 26.3361 129.999 26.9077C129.63 27.4807 129.286 28.0232 128.965 28.5353C128.691 28.971 128.483 29.3105 128.341 29.5547H123.776L129.629 20.7852Z" fill="var(--fill-0, white)"/>
<path d="M79.5293 7.66004C79.5293 6.89105 79.8032 6.22632 80.3509 5.6659C80.8986 5.10543 81.5543 4.8252 82.3187 4.8252C83.0952 4.8252 83.7578 5.10543 84.3055 5.6659C84.8528 6.21333 85.1267 6.88453 85.1267 7.6796C85.1267 8.47467 84.8528 9.15243 84.3055 9.71295C83.7703 10.2734 83.1147 10.5536 82.3377 10.5536C81.5608 10.5536 80.8986 10.2734 80.3509 9.71295C79.8032 9.15243 79.5293 8.46815 79.5293 7.66004Z" fill="var(--fill-0, white)"/>
</g>

  </svg>
</svg>
