<svg xmlns="http://www.w3.org/2000/svg" fill="none" width="253.797" height="63.438" viewBox="0 0 253.797 63.438">
  <svg x="0" y="0" width="253.797" height="63.438" viewBox="0 0 124.301 31.075" overflow="visible">

<g>
<path clip-rule="evenodd" d="M25.6555 0H10.0486V9.98848H25.6555V0ZM10.0486 18.8168V9.98848H0L1.82408e-05 18.8168C2.73488e-05 25.5869 5.44867 31.0751 12.1699 31.0751H25.6555V20.9535H12.1699C10.9983 20.9535 10.0486 19.9968 10.0486 18.8168Z" fill="var(--fill-0, white)" fill-rule="evenodd"/>
<path d="M48.1796 25.0687C42.2822 25.0687 38.5896 21.1533 38.5896 14.9205C38.5896 8.76758 42.4947 4.71889 48.3655 4.71889C53.2801 4.71889 56.8132 7.5423 57.4243 11.9639H52.8816C52.2972 9.99277 50.6236 8.87407 48.2593 8.87407C45.0715 8.87407 43.1322 11.1381 43.1322 14.8938C43.1322 18.5962 45.098 20.9135 48.2593 20.9135C50.6767 20.9135 52.4566 19.7149 52.9878 17.7705H57.4508C56.7601 22.1654 53.0941 25.0687 48.1796 25.0687ZM59.0516 18.0634C59.0516 13.855 62.1332 11.0316 66.3835 11.0316C70.6074 11.0316 73.689 13.855 73.689 18.0634C73.689 22.272 70.6074 25.0687 66.3835 25.0687C62.1332 25.0687 59.0516 22.272 59.0516 18.0634ZM63.1692 18.0369C63.1692 20.0611 64.4709 21.393 66.3835 21.393C68.2697 21.393 69.5713 20.0611 69.5713 18.0369C69.5713 16.0392 68.2697 14.7073 66.3835 14.7073C64.4709 14.7073 63.1692 16.0392 63.1692 18.0369ZM78.0243 9.35351C76.7226 9.35351 75.6866 8.31471 75.6866 7.00957C75.6866 5.70441 76.7226 4.69225 78.0243 4.69225C79.2994 4.69225 80.3355 5.70441 80.3355 7.00957C80.3355 8.31471 79.2994 9.35351 78.0243 9.35351ZM76.0053 24.7491V11.4311H80.0964V24.7491H76.0053ZM87.2012 24.7491H83.1101V11.4311H86.9621L87.2277 12.8162C88.0512 11.6708 89.5653 11.005 91.2922 11.005C94.4536 11.005 96.2861 13.0293 96.2861 16.5186V24.7491H92.1957V17.5041C92.1957 15.826 91.2658 14.734 89.8577 14.734C88.2372 14.734 87.2012 15.7995 87.2012 17.4508V24.7491ZM102.597 24.7491L96.6997 5.03852H101.189L103.766 13.5886C104.112 14.7607 104.431 15.9326 104.749 17.8771C105.068 15.9326 105.387 14.8139 105.732 13.5886L108.149 5.03852H112.957L115.269 13.5886C115.588 14.7872 115.907 15.9858 116.252 17.8771C116.65 15.8794 116.942 14.7872 117.287 13.6419L119.918 5.03852H124.301L118.297 24.7491H114.1L110.514 11.8041L106.821 24.7491H102.597Z" fill="var(--fill-0, white)"/>
</g>

  </svg>
</svg>
