<svg xmlns="http://www.w3.org/2000/svg" fill="none" width="236.781" height="53.969" viewBox="0 0 236.781 53.969">
  <svg x="0" y="0" width="55.844" height="53.969" viewBox="0 0 27.343 26.4" overflow="visible">

<path d="M13.6714 20.3702C9.50744 20.3702 6.17682 17.1542 6.17682 13.134C6.17682 9.11351 9.50744 5.89784 13.6714 5.89784V0C6.10706 0 0 5.89637 0 13.2C0 20.5037 6.10706 26.4 13.6714 26.4C21.2359 26.4 27.3428 20.5037 27.3428 13.2H21.2359C21.166 17.1531 17.8355 20.3702 13.6714 20.3702Z" fill="var(--fill-0, #0068FF)"/>

  </svg>
  <svg x="26.938" y="11.578" width="15.422" height="15.406" viewBox="0 0 7.543 7.543" overflow="visible">

<path d="M7.54285 0H0V7.54287H7.54285V0Z" fill="var(--fill-0, #17E6A1)"/>

  </svg>
  <svg x="61.578" y="0" width="175.203" height="52" viewBox="0 0 85.8 25.457" overflow="visible">

<path d="M12.2757 11.4035V15.875H19.0655L19.0149 15.997C17.8605 18.8032 15.1778 20.6158 12.1798 20.6158C8.09733 20.6158 4.77678 17.2496 4.77678 13.114C4.77678 8.97844 8.09845 5.61226 12.1798 5.61226C14.5374 5.61226 16.7183 6.73457 18.1147 8.63986H23.5245C21.7111 3.91072 17.2197 0.771042 12.1813 0.771042C5.46438 0.771042 0 6.30787 0 13.114C0 19.9202 5.46438 25.4572 12.1813 25.4572C15.4335 25.4572 18.4883 24.1729 20.7837 21.8421C23.0777 19.5127 24.3399 16.412 24.3399 13.114C24.3399 12.5017 24.3043 11.9416 24.231 11.4046H12.2757V11.4035ZM85.7326 15.2852C85.7973 14.8073 85.7999 14.3241 85.7999 13.8285C85.7999 7.91789 81.1138 3.12695 75.2807 3.12695C69.4476 3.12695 64.7195 7.91789 64.7195 13.8285C64.7195 19.739 69.4476 24.53 75.2807 24.53C79.8427 24.53 83.723 21.5958 85.1989 17.4899H80.431C79.2915 19.1327 77.4134 20.2094 75.2807 20.2094C72.2976 20.2094 69.8052 18.1053 69.1536 15.2837H81.4078H85.7326V15.2852ZM69.506 11.2826C70.4768 9.02476 72.695 7.44524 75.2807 7.44524C77.8665 7.44524 80.0846 9.02476 81.0554 11.2826H69.5071H69.506ZM43.4404 5.16447C41.6455 3.73823 39.3876 2.88418 36.9345 2.88418C31.1115 2.88418 26.3734 7.68514 26.3734 13.5859C26.3734 19.4863 31.1115 24.2874 36.9345 24.2874C39.3876 24.2874 41.6455 23.4333 43.4404 22.007V24.124H47.7366V3.80866H43.4404V5.16597V5.16447ZM36.9345 19.8686C33.5159 19.8686 30.7342 17.0496 30.7342 13.5859C30.7342 10.1218 33.5159 7.30288 36.9345 7.30288C40.3532 7.30288 43.1352 10.1218 43.1352 13.5859C43.1352 17.0496 40.3532 19.8686 36.9345 19.8686ZM57.6116 0H52.9229V3.80866H50.7233V8.16458H52.9229V17.9806C52.9229 21.4636 55.7198 24.2976 59.157 24.2976H63.0797V19.6332H59.2425C58.3427 19.6332 57.6116 18.8913 57.6116 17.9806V8.16458H63.0819V3.80866H57.6116V0Z" fill="var(--fill-0, #14141E)"/>

  </svg>
</svg>
