<svg xmlns="http://www.w3.org/2000/svg" fill="none" width="286.297" height="45.719" viewBox="0 0 286.297 45.719">
  <svg x="0" y="0" width="286.297" height="45.719" viewBox="0 0 140.223 22.4" overflow="visible">

<g>
<path d="M122.705 21.7835V0.616514H126.193V3.32918C127.342 1.27414 129.76 0 132.495 0C136.973 0 140.223 2.46606 140.223 8.8367V21.7835H136.656V9.37102C136.656 5.42532 134.793 3.49358 131.702 3.49358C128.214 3.49358 126.272 5.95963 126.272 9.49432V21.7835H122.705Z" fill="var(--fill-0, white)"/>
<path d="M110.419 22.4C104.117 22.4 100.114 18.0022 100.114 11.0972C100.114 4.48 104.196 0 110.102 0C115.967 0 120.089 4.11009 120.089 9.98753C120.089 11.6727 120.089 12.0426 120.01 12.4125H103.839C104.077 16.5636 106.574 19.112 110.458 19.112C113.193 19.112 115.095 17.8788 116.046 15.6184H119.732C118.662 19.8518 115.214 22.4 110.419 22.4ZM103.839 9.37102H116.324C116.165 5.58972 113.787 3.24697 110.102 3.24697C106.574 3.24697 104.236 5.50753 103.839 9.37102Z" fill="var(--fill-0, white)"/>
<path d="M68.6926 22.4C64.5709 22.4 61.5588 20.0984 61.5588 16.1115C61.5588 12.1248 64.2935 10.3163 67.5037 9.69982L72.4975 8.7134C74.2017 8.38459 75.1925 7.93248 75.1925 6.32955C75.1925 4.47999 73.6864 3.24697 70.6743 3.24697C68.2171 3.24697 66.0769 4.27449 65.7995 6.61724H62.1136C62.3513 2.46606 65.9976 0 70.7139 0C76.4211 0 78.7595 2.95927 78.7595 6.45284V17.3035C78.7595 18.2899 79.1955 18.7832 79.988 18.7832C80.6618 18.7832 81.0582 18.6187 81.4149 18.3721V21.3724C80.8601 21.8657 79.9089 22.1945 78.7595 22.1945C77.0949 22.1945 75.668 21.0848 75.3113 19.2763C74.3602 20.6737 72.3785 22.4 68.6926 22.4ZM65.2447 15.9883C65.2447 18.1256 66.9884 19.1531 69.3267 19.1531C72.6164 19.1531 75.1925 17.2212 75.1925 14.2209V10.8095C74.7962 11.2617 73.5676 11.6316 72.1011 11.9193L68.7719 12.5769C66.3939 13.029 65.2447 14.0976 65.2447 15.9883Z" fill="var(--fill-0, white)"/>
<path d="M50.8435 21.7835V0.61651H54.3311V4.15119C55.3219 1.64404 57.1055 0.164401 59.9193 0.164401C60.514 0.164401 61.1084 0.287705 61.4255 0.369905V4.15119C61.1084 4.06899 60.4346 3.94569 59.7609 3.94569C56.2731 3.94569 54.4104 6.78166 54.4104 11.3027V21.7835H50.8435Z" fill="var(--fill-0, white)"/>
<path d="M44.5927 0.616507H49.1901L40.9465 9.0011L49.6262 21.7835H45.4646L38.5288 11.5494L35.1205 14.9196V21.7835H31.5534V0.616507H35.1205V10.3163L44.5927 0.616507Z" fill="var(--fill-0, white)"/>
<path d="M96.1069 0.616507H100.704L92.4607 9.0011L101.14 21.7835H96.9788L90.043 11.5494L86.6345 14.9196V21.7835H83.0676V0.616507H86.6345V10.3163L96.1069 0.616507Z" fill="var(--fill-0, white)"/>
<path d="M13.5698 4.57764e-05C6.07511 4.57764e-05 0 6.38278 0 14.2561V20.3655C0 21.4893 0.866965 22.3995 1.93718 22.3995C3.00738 22.3995 3.8807 21.4893 3.8807 20.3655V14.2561C3.8807 13.129 4.74449 12.2186 5.81787 12.2186C6.88809 12.2186 7.75505 13.129 7.75505 14.2561V20.3655C7.75505 21.4893 8.62201 22.3995 9.69223 22.3995C10.7656 22.3995 11.6326 21.4893 11.6326 20.3655V14.2561C11.6326 13.129 12.4995 12.2186 13.5698 12.2186C14.6431 12.2186 15.5133 13.129 15.5133 14.2561V20.3655C15.5133 21.4893 16.3802 22.3995 17.4505 22.3995C18.5206 22.3995 19.3877 21.4893 19.3877 20.3655V14.2561C19.3877 13.129 20.2546 12.2186 21.3311 12.2186C22.4014 12.2186 23.2683 13.129 23.2683 14.2561V20.3655C23.2683 21.4893 24.1352 22.3995 25.2087 22.3995C26.2789 22.3995 27.1458 21.4893 27.1458 20.3655V14.2561C27.1458 6.38278 21.0676 4.57764e-05 13.5698 4.57764e-05Z" fill="var(--fill-0, white)"/>
</g>

  </svg>
</svg>
