<svg xmlns="http://www.w3.org/2000/svg" fill="none" width="271.469" height="63.719" viewBox="0 0 271.469 63.719">
  <svg x="0" y="0" width="271.469" height="63.719" viewBox="0 0 132.972 31.2" overflow="visible">

<g>
<path d="M104.664 15.6001C104.664 14.7878 104.664 14.0356 104.634 13.3436C104.605 12.6516 104.545 11.9897 104.456 11.4181C104.367 10.8164 104.19 10.2748 103.923 9.73323C103.686 9.19167 103.3 8.71028 102.856 8.22889C102.204 7.56698 101.492 7.08559 100.692 6.72455C99.8915 6.3936 98.9727 6.18299 97.9353 6.18299C96.8977 6.18299 95.9789 6.3635 95.1786 6.72455C94.3782 7.05551 93.6372 7.56698 92.9851 8.22889C92.5108 8.71028 92.1848 9.19167 91.9476 9.73323C91.7105 10.2748 91.503 10.8164 91.414 11.4181C91.3251 12.0198 91.2658 12.6516 91.2362 13.3436C91.2065 14.0356 91.2065 14.7878 91.2065 15.6001C91.2065 16.4125 91.2065 17.1345 91.2362 17.8567C91.2658 18.5487 91.3251 19.2106 91.414 19.7822C91.503 20.384 91.6808 20.9255 91.9476 21.467C92.1848 22.0086 92.57 22.49 92.9851 22.9714C93.6372 23.6334 94.3486 24.1147 95.1786 24.4758C95.9789 24.8067 96.8977 25.0173 97.9353 25.0173C98.9727 25.0173 99.862 24.8368 100.692 24.4758C101.492 24.1448 102.233 23.6334 102.856 22.9714C103.33 22.49 103.656 22.0086 103.923 21.467C104.16 20.9255 104.367 20.384 104.456 19.7822C104.545 19.1805 104.634 18.5487 104.634 17.8567C104.664 17.1045 104.664 16.4125 104.664 15.6001ZM101.137 15.6001C101.137 16.4727 101.137 17.2249 101.107 17.8265C101.077 18.4283 101.048 18.8796 100.959 19.2707C100.899 19.6318 100.81 19.9627 100.692 20.1734C100.573 20.414 100.455 20.6548 100.247 20.8352C100.01 21.1362 99.6545 21.3768 99.2988 21.5574C98.9134 21.7378 98.4687 21.798 97.9649 21.8282C97.461 21.8282 97.0459 21.7378 96.631 21.5574C96.2457 21.3768 95.9196 21.1662 95.6528 20.8352C95.4749 20.6548 95.3565 20.4441 95.2082 20.1734C95.0897 19.9326 95.0007 19.6318 94.9414 19.2707C94.8822 18.9097 94.8229 18.4283 94.8229 17.8265C94.7932 17.2249 94.7932 16.5027 94.7932 15.6001C94.7932 14.7276 94.7932 13.9755 94.8229 13.3738C94.8525 12.772 94.8822 12.3207 94.9414 11.9296C95.0007 11.5384 95.0897 11.2376 95.2082 11.027C95.3268 10.7863 95.4454 10.5456 95.6528 10.3651C95.8899 10.0642 96.2457 9.82349 96.631 9.64298C97.0163 9.46244 97.461 9.40228 97.9649 9.37219C98.4687 9.37219 98.8838 9.46244 99.2988 9.64298C99.6545 9.82349 100.01 10.0341 100.247 10.3651C100.425 10.5456 100.544 10.7562 100.692 11.027C100.81 11.2677 100.899 11.5685 100.959 11.9296C101.018 12.2906 101.077 12.772 101.107 13.3738C101.107 13.9755 101.137 14.7276 101.137 15.6001Z" fill="var(--fill-0, white)"/>
<path d="M132.972 6.66449C132.972 6.48396 132.825 6.36362 132.676 6.36362H129.771C129.593 6.36362 129.474 6.51406 129.474 6.66449V17.6762L122.331 6.45388C122.272 6.3937 122.242 6.36362 122.153 6.36362H119.426C119.278 6.36362 119.13 6.51406 119.13 6.66449C119.13 12.6217 119.13 18.5788 119.13 24.4759C119.13 24.6563 119.278 24.7767 119.426 24.7767H122.331C122.509 24.7767 122.628 24.6263 122.628 24.4759V13.4341L129.771 24.6865C129.83 24.7467 129.86 24.7767 129.949 24.7767H132.676C132.854 24.7767 132.972 24.6263 132.972 24.4759V6.66449Z" fill="var(--fill-0, white)"/>
<path d="M113.32 6.66437C113.32 6.48386 113.171 6.3635 113.023 6.3635H110.118C109.941 6.3635 109.822 6.51394 109.822 6.66437V24.4758C109.822 24.6563 109.97 24.7766 110.118 24.7766H113.023C113.201 24.7766 113.32 24.6262 113.32 24.4758V6.66437Z" fill="var(--fill-0, white)"/>
<path d="M78.2833 15.6001C78.2833 14.7276 78.2833 13.9755 78.3129 13.3738C78.3426 12.772 78.3722 12.3207 78.4315 11.9296C78.6983 10.335 79.9136 9.40228 81.4549 9.40228C82.4627 9.40228 83.3519 9.76332 83.9448 10.6358C84.1819 10.9969 84.3895 11.4482 84.508 11.9597C84.508 12.0198 84.5377 12.0499 84.597 12.0499H88.0353C88.0946 12.0499 88.0946 12.0198 88.0946 11.9597C87.739 9.82349 86.5829 7.83776 84.5673 6.87499C83.6485 6.42368 82.5813 6.18299 81.3956 6.18299C79.4689 6.18299 77.809 6.87499 76.4751 8.19881C75.7045 8.98107 75.2302 9.91375 74.993 10.9668C74.7855 11.9897 74.6966 13.5242 74.6966 15.5399C74.6966 17.5559 74.7855 19.0902 74.993 20.1132C75.2005 21.1662 75.7341 22.0988 76.4751 22.8812C77.809 24.2351 79.4393 24.897 81.3956 24.897C82.5516 24.897 83.6187 24.6864 84.5673 24.205C86.5532 23.2422 87.739 21.3166 88.0946 19.1203C88.0946 19.0601 88.0946 19.0301 88.0353 19.0301H84.597C84.5377 19.0301 84.508 19.0601 84.508 19.1203C84.3895 19.6318 84.2116 20.053 83.9448 20.4441C83.3519 21.2866 82.4627 21.6476 81.4549 21.6776C79.9136 21.6776 78.7279 20.745 78.4315 19.1504C78.3722 18.7893 78.3129 18.3079 78.3129 17.7063C78.2833 17.2249 78.2833 16.4727 78.2833 15.6001Z" fill="var(--fill-0, white)"/>
<path d="M41.8833 6.66437C41.8833 6.48386 41.735 6.3635 41.5868 6.3635H38.6819C38.5041 6.3635 38.3856 6.51394 38.3856 6.66437V24.4758C38.3856 24.6563 38.5337 24.7766 38.6819 24.7766H41.5868C41.7647 24.7766 41.8833 24.6262 41.8833 24.4758V19.2407L44.2545 16.3825L49.0862 24.7165C49.1158 24.7766 49.1751 24.8067 49.264 24.8067H52.8211C52.9693 24.8067 52.9989 24.7165 52.9396 24.566L46.6259 13.7047L52.4357 6.63429C52.5543 6.48386 52.495 6.3635 52.3171 6.3635H48.4045C48.3452 6.3635 48.3155 6.3635 48.2859 6.42368L41.8833 14.156V6.66437Z" fill="var(--fill-0, white)"/>
<path d="M63.2248 21.7678C61.5649 21.7678 60.0828 20.2034 60.0828 18.3681V6.6944C60.0828 6.51388 59.9346 6.39354 59.7864 6.39354H56.8815C56.7036 6.39354 56.585 6.54396 56.585 6.6944V18.3379C56.585 22.4298 59.6085 25.0172 63.2841 25.0172C66.9596 25.0172 69.9831 22.4298 69.9831 18.3379V6.6944C69.9831 6.51388 69.8348 6.39354 69.6867 6.39354H66.7819C66.604 6.39354 66.4854 6.54396 66.4854 6.6944V18.3681C66.3372 20.2034 64.8551 21.7678 63.2248 21.7678Z" fill="var(--fill-0, white)"/>
<path d="M8.86286 15.6L17.9629 24.8366L23.7133 18.9998C24.7211 17.9769 26.3812 17.9769 27.3889 18.9998C28.3967 20.0227 28.3967 21.7077 27.3889 22.7306L19.8007 30.4327C18.7929 31.4557 17.1329 31.4557 16.125 30.4327L5.21693 19.3307V25.9498C5.21693 27.394 4.06091 28.5975 2.60847 28.5975C1.15603 28.5975 0 27.4242 0 25.9498V5.31032C0 3.83607 1.15603 2.66269 2.60847 2.66269C4.06091 2.66269 5.21693 3.83607 5.21693 5.31032V11.8692L16.1547 0.767213C17.1626 -0.255738 18.8224 -0.255738 19.8303 0.767213L27.4186 8.46944C28.4264 9.49238 28.4264 11.1772 27.4186 12.2002C26.4107 13.2231 24.7509 13.2231 23.743 12.2002L17.9925 6.36336L8.86286 15.6ZM17.9925 12.9524C16.5401 12.9524 15.3841 14.1258 15.3841 15.6C15.3841 17.0742 16.5401 18.2476 17.9925 18.2476C19.4449 18.2476 20.6009 17.0742 20.6009 15.6C20.5713 14.1258 19.4153 12.9524 17.9925 12.9524Z" fill="var(--fill-0, white)"/>
</g>

  </svg>
</svg>
