<svg xmlns="http://www.w3.org/2000/svg" fill="none" width="203.938" height="40.781" viewBox="0 0 203.938 40.781">
  <svg x="0" y="0" width="203.938" height="40.781" viewBox="0 0 99.884 19.977" overflow="visible">

<g>
<path d="M74.8931 3.28585C74.7966 3.67768 74.7393 4.0947 74.7286 4.53327C74.6821 6.58956 74.7178 8.72854 74.7142 10.7884C74.7142 11.1155 74.6749 11.4427 74.6392 12.0646C74.1705 11.511 68.6435 4.67708 66.1751 1.60702C66.1321 1.5531 66.0892 1.50636 66.0426 1.45604L64.948 0.100758H63.4884C63.0341 0.0468343 62.5655 0.0540241 62.0861 0.100758H61.4708V19.8763C63.6601 20.1279 65.6026 18.1004 65.6563 15.5157C65.6921 13.7362 65.6634 12.079 65.6634 10.2995V8.16053C65.6634 8.16053 69.9205 13.1323 72.7717 16.5511L75.4405 19.8584H77.1291C77.4582 19.8872 77.7944 19.8835 78.1414 19.8584H78.9177V0.0648088C76.943 -0.017874 75.3832 1.30146 74.886 3.28585H74.8931Z" fill="var(--fill-0, #F2E045)"/>
<path d="M17.5007 19.8438H0V0.0754431C2.41475 -0.111492 4.33938 1.82256 4.37516 4.50796C4.41093 7.16818 4.38231 9.83202 4.38231 12.4922V15.3933H5.61293C8.8791 15.3933 10.0418 15.3718 13.3079 15.4005C15.6761 15.4221 17.5364 17.3741 17.497 19.8402L17.5007 19.8438Z" fill="var(--fill-0, #F2E045)"/>
<path d="M98.6036 14.2718L92.4541 9.13106L98.135 5.64401C99.8522 4.59069 100.396 2.33309 99.3478 0.607539L98.9793 0L86.6659 7.55649V3.69197C86.6659 1.67164 85.031 0.0287592 83.0205 0.0287592H82.3122V19.8511H83.0205C85.031 19.8511 86.6659 18.2082 86.6659 16.1878V12.6829L88.5261 11.5432L98.5535 19.9769L99.0114 19.4376C100.317 17.8991 100.138 15.5875 98.6072 14.2754L98.6036 14.2718Z" fill="var(--fill-0, #F2E045)"/>
<path d="M59.1092 18.956C56.9377 13.2617 54.7698 7.56736 52.5697 1.88742L51.8864 0.0648006H46.9174L46.2842 1.75441C45.2002 4.63393 44.0949 7.50625 43.0001 10.3822C41.8482 13.4019 40.6999 16.4216 39.5515 19.4341C41.3939 20.4156 43.662 19.6211 44.6851 17.6187C44.9785 17.0436 45.0786 16.8782 45.0786 16.8782H53.7646C53.7646 16.8782 53.854 17.0436 54.2117 17.7121C55.2349 19.6283 57.2954 20.3437 59.2523 19.4917C59.1986 19.2795 59.17 19.1106 59.1128 18.9596L59.1092 18.956ZM46.7457 12.3989C47.6293 10.073 48.4699 7.84418 49.4144 5.36369C50.3624 7.85137 51.2174 10.0802 52.101 12.3989H46.7457Z" fill="var(--fill-0, #F2E045)"/>
<path d="M36.693 11.4318C36.1276 10.5654 36.1527 9.50134 36.6965 8.66373C37.2546 7.80814 37.5766 6.79078 37.5873 5.69794C37.6088 2.6207 35.033 0.150998 31.9708 0.150998H22.2188C20.8308 0.150998 19.7075 1.2798 19.7075 2.67462V17.4461C19.7075 18.8409 20.8308 19.9697 22.2188 19.9697H32.1103V19.9553C35.1368 19.9553 37.5908 17.4893 37.5908 14.4479C37.5908 13.3335 37.2617 12.2982 36.6965 11.4354L36.693 11.4318ZM30.6578 17.3527C29.395 18.4204 27.499 18.3161 26.4508 17.1225C25.4241 15.9505 25.4312 14.3293 26.4186 13.1285C26.8801 12.5678 27.3559 11.9782 27.6386 11.3204C28.1 10.2563 27.8818 8.89381 27.1771 7.96632C26.8766 7.57448 26.5367 7.21498 26.2398 6.82313C25.3919 5.70513 25.4349 4.13055 26.3363 3.10242C27.2915 2.00956 28.8191 1.71837 30.0497 2.4086C30.3001 2.5488 30.5219 2.71057 30.7223 2.89391H30.7186C31.0978 3.2498 31.3769 3.68839 31.5165 4.23122C31.6989 4.92503 31.6237 5.67278 31.3197 6.31986C31.2052 6.56431 31.0585 6.79438 30.8868 7.00288C30.572 7.38035 30.2429 7.75422 29.9639 8.15685C29.1983 9.28205 29.2627 11.0831 30.0998 12.1616C30.4002 12.5499 30.733 12.9201 31.037 13.3047C31.9958 14.5163 31.817 16.3748 30.6543 17.3562L30.6578 17.3527Z" fill="var(--fill-0, #F2E045)"/>
</g>

  </svg>
</svg>
