<svg xmlns="http://www.w3.org/2000/svg" fill="none" width="271.359" height="39.219" viewBox="0 0 271.359 39.219">
  <svg x="0" y="0" width="271.359" height="39.219" viewBox="0 0 132.853 19.2" overflow="visible">

<g>
<path clip-rule="evenodd" d="M3.69261 19.2H21.2042C22.2449 19.2 23.037 17.9628 22.4376 17.0642L13.6929 1.84953C13.0541 0.748614 11.8426 0 10.455 0C9.00119 0 7.72356 0.836687 7.1068 2.06971L0.454636 13.6073C-0.899998 16.0253 0.946893 19.2 3.69261 19.2Z" fill="var(--fill-0, white)" fill-rule="evenodd"/>
<path clip-rule="evenodd" d="M17.482 5.61534C16.4467 3.83186 17.0635 1.54196 18.8477 0.507096C20.6318 -0.527763 22.9226 0.0887512 23.9579 1.87224L30.7203 13.586C31.7556 15.3694 31.1387 17.6594 29.3545 18.6942C27.5703 19.7291 25.2795 19.1125 24.2442 17.3291L17.482 5.61534Z" fill="var(--fill-0, white)" fill-rule="evenodd"/>
<path d="M121.328 4.87565C122.349 3.9232 124.141 3.46965 126.75 3.46965H132.853V0H125.639C123.914 0 122.462 0.181425 121.328 0.544264C120.216 0.907104 119.241 1.47403 118.402 2.26775C117.517 3.12949 116.814 4.19533 116.315 5.46526C115.816 6.75788 115.565 8.16388 115.565 9.6379C115.565 11.0439 115.816 12.4046 116.315 13.6518C116.814 14.8991 117.517 15.9876 118.402 16.8493C119.218 17.6431 120.193 18.21 121.283 18.5729C122.394 18.9356 123.869 19.1171 125.639 19.1171H132.853V15.6928H126.75C125.367 15.6928 124.413 15.6474 123.869 15.5341C123.302 15.4207 122.78 15.2392 122.349 14.9671C121.487 14.4229 120.829 13.7199 120.398 12.8354C119.989 11.9737 119.785 10.8851 119.785 9.61529C119.785 7.4382 120.307 5.8281 121.328 4.87565Z" fill="var(--fill-0, white)"/>
<path d="M68.2187 19.1627H85.2335V15.8065H72.3703V11.0215H83.6001V7.84664H72.3703V3.40187H85.2335V0.0229248H68.2187V19.1627Z" fill="var(--fill-0, white)"/>
<path d="M89.4761 0.0229248L97.4391 9.59277L89.4761 19.1627H94.6259L100.911 11.5884V7.61987L94.6259 0.0229248H89.4761Z" fill="var(--fill-0, white)"/>
<path d="M108.805 0.0229248L102.522 7.61987V11.5884L108.805 19.1627H113.956L105.969 9.59277L113.956 0.0229248H108.805Z" fill="var(--fill-0, white)"/>
<path d="M51.5447 9.45675L43.8994 0.0229248H39.9519V19.1627H44.1035V6.3953L50.728 14.3324H52.3388L58.9631 6.32727V19.1627H63.1148V0.0229248H59.2127L51.5447 9.45675Z" fill="var(--fill-0, white)"/>
</g>

  </svg>
</svg>
