<svg xmlns="http://www.w3.org/2000/svg" fill="none" width="99.266" height="24.813" viewBox="0 0 99.266 24.813">
  <svg x="0" y="0" width="99.266" height="24.813" viewBox="0 0 99.28 24.82" overflow="visible">

<g clip-path="url(#clip0_0_36778)">
<path d="M14.4774 2.06833L10.8579 0L7.23828 2.06833L10.8579 4.13666L14.4774 2.06833Z" fill="var(--fill-0, #0DB459)"/>
<path d="M1.56053e-06 6.20505L3.61956 4.13672L7.23915 6.20506L3.61958 8.27338V16.5467L10.8587 20.6833L18.0979 16.5467V8.27338L14.4783 6.20505L18.0979 4.13672L21.7175 6.20505V18.615L10.8587 24.82L0 18.615L1.56053e-06 6.20505Z" fill="var(--fill-0, #0DB459)"/>
<path d="M14.4538 14.4916V10.3549L10.8342 8.28656L7.21461 10.3549V14.4916L10.8342 16.5599L14.4538 14.4916Z" fill="var(--fill-0, #0DB459)"/>
<path d="M99.2823 8.36569H96.4171V19.7647H93.1904V8.36569H90.3242V5.05615H99.2823V8.36569Z" fill="var(--fill-0, #080A0E)"/>
<path clip-rule="evenodd" d="M71.0078 5.05615H77.9056C80.2803 5.05615 82.2055 7.03168 82.2055 9.46859C82.2055 10.4127 81.9165 11.2876 81.4243 12.0052C82.1861 12.8292 82.6534 13.9425 82.6534 15.168C82.6534 17.7065 80.6481 19.7643 78.1744 19.7643H71.0078V5.05615ZM74.2328 10.5717H77.9056C78.4993 10.5717 78.9806 10.0778 78.9806 9.46859C78.9806 8.85936 78.4993 8.36548 77.9056 8.36548H74.2328V10.5717ZM74.2328 16.4549H78.1744C78.8669 16.4549 79.4285 15.8787 79.4285 15.168C79.4285 14.4572 78.8669 13.881 78.1744 13.881H74.2328V16.4549Z" fill="var(--fill-0, #080A0E)" fill-rule="evenodd"/>
<path clip-rule="evenodd" d="M64.4021 5.05615H57.6836V19.7643H60.9085V15.168H64.4021C64.5065 15.168 64.6099 15.1646 64.7126 15.1581L65.8803 19.7643H69.3292L67.8084 13.7652C68.7456 12.8448 69.3292 11.5483 69.3292 10.1121C69.3292 7.31978 67.1233 5.05615 64.4021 5.05615ZM64.4021 8.36548H60.9085V11.8587H64.4021C65.3422 11.8587 66.1043 11.0767 66.1043 10.1121C66.1043 9.14748 65.3422 8.36548 64.4021 8.36548Z" fill="var(--fill-0, #080A0E)" fill-rule="evenodd"/>
<path d="M47.5765 5.05631H44.3516V14.2489C44.3516 17.5489 46.9585 20.224 50.1744 20.224C53.3903 20.224 55.9972 17.5489 55.9972 14.2489V5.05631H52.7723V14.2489C52.7723 15.7212 51.6092 16.9148 50.1744 16.9148C48.7397 16.9148 47.5765 15.7212 47.5765 14.2489V5.05631Z" fill="var(--fill-0, #080A0E)"/>
<path clip-rule="evenodd" d="M39.4441 14.2484V10.5714C39.4441 9.09906 38.281 7.90552 36.8463 7.90552C35.4115 7.90552 34.2484 9.09906 34.2484 10.5714V14.2484C34.2484 15.7207 35.4115 16.9142 36.8463 16.9142C38.281 16.9142 39.4441 15.7207 39.4441 14.2484ZM36.8463 4.59619C33.6304 4.59619 31.0234 7.27137 31.0234 10.5714V14.2484C31.0234 17.5483 33.6304 20.2235 36.8463 20.2235C40.0621 20.2235 42.6691 17.5483 42.6691 14.2484V10.5714C42.6691 7.27137 40.0621 4.59619 36.8463 4.59619Z" fill="var(--fill-0, #080A0E)" fill-rule="evenodd"/>
<path d="M88.637 5.05518H84.3359V19.7633H88.637V5.05518Z" fill="var(--fill-0, #0DB459)"/>
<path d="M86.669 4.13672H86.3125V20.6833H86.669V4.13672Z" fill="var(--fill-0, #0DB459)"/>
</g>
<defs>
<clipPath>
<rect fill="white" height="24.8199" width="99.2798"/>
</clipPath>
</defs>

  </svg>
</svg>
