<svg xmlns="http://www.w3.org/2000/svg" fill="none" width="118.922" height="24.813" viewBox="0 0 118.922 24.813">
  <svg x="0" y="0" width="118.922" height="24.813" viewBox="0 0 118.929 24.82" overflow="visible">

<g clip-path="url(#clip0_0_36802)">
<g>
<path clip-rule="evenodd" d="M73.9779 19.6491V4.65374H85.7467V7.77692H77.8726V10.5795H84.9814V13.681L77.8726 13.7016V16.5259H85.9598V19.6491H73.9779ZM64.9207 15.6055L67.8619 4.65374H71.8951L66.8091 19.6491H62.7758L59.9216 9.44502L57.0259 19.6491H52.9927L47.9294 4.65374H52.156L55.1168 15.6055L58.0776 4.65374H61.9175L64.9207 15.6055ZM89.6072 4.65374V19.6491H101.59V16.5259H93.5029V13.7027L100.611 13.681V10.5785H93.5029V7.77692H101.377V4.65374H89.6072ZM108.069 4.65374H103.496L108.498 12.0129L103.152 19.6491H107.746L110.881 15.0068L114.08 19.6491H118.781L113.393 11.8205L118.352 4.65374H113.715L110.881 8.91036L108.069 4.65374ZM24.9513 15.831L31.3983 9.30748L22.401 0L13.4048 9.30748L19.8518 15.8124L15.8196 19.9097L5.05913 9.30644L9.9921 4.28661H14.3925L17.7256 0.675309H8.39328L0 9.30748L15.8196 24.8024L22.4021 18.4092L28.9835 24.821L44.8031 9.30748L36.4109 0.693924H27.0775L30.4106 4.30419H34.812L39.744 9.30541L28.9835 19.9283L24.9513 15.831ZM22.4021 12.986L18.6532 9.30541L22.4021 5.34456L26.1499 9.30541L22.4021 12.986Z" fill="var(--fill-0, white)" fill-rule="evenodd"/>
</g>
</g>
<defs>
<clipPath>
<rect fill="white" height="24.8199" width="118.929"/>
</clipPath>
</defs>

  </svg>
</svg>
